<svg xmlns="http://www.w3.org/2000/svg" width="1440" height="1440" viewBox="0 0 1080 1080"><g fill="#17a2b8"><path d="M515.5 110.5c-54.4 8.8-96.1 47.2-115.8 106.5-9.2 27.5-12.6 52.1-10.6 76.7.6 8.4 1.4 15.3 1.7 15.3s9.4-4.4 20.1-9.8c10.8-5.3 20.7-10.2 22.1-10.7 2.5-1 2.5-1.2 3.1-15.5 1.6-35.2 13.2-63.7 35.4-86.9 9.6-10 17.3-15.7 28.6-21 14.2-6.8 22.9-8.6 40.4-8.5 17.8.1 26.1 2 40 8.8 30.6 15.2 49.5 45 56 88.3 2.2 14.5 2.2 44.8 0 60.8-4.9 36.3-16.4 68.1-36.7 101.3-11.9 19.4-20.3 30.7-37.5 50.4-5.7 6.4-10.3 11.9-10.3 12.1 0 .8 28.2 19.3 32.7 21.6 2.3 1.1 4.9 2.1 5.7 2.1 2.5 0 24.1-26.8 38.8-48.1 11.1-16 28.1-48 35.9-67.7 14.4-35.9 22.1-78.6 20.5-113.7-2.2-51.1-18.3-91.4-48.5-121.6-17.3-17.3-35.5-28.4-58.1-35.5-17.8-5.7-45.6-7.8-63.5-4.9"/><path d="M512 282.1c-38.8 3.8-85.4 19.1-121.5 39.9-50.5 29-82.6 67.8-94.3 113.9-2.5 9.9-2.7 12.1-2.7 32.6 0 21 .1 22.5 2.8 31.9 5.7 20.6 14.4 36 28.2 50.5 17.7 18.5 38 30.2 64 37.1 15.8 4.2 26.7 5.4 43 4.7 24.8-1.1 44.8-6.7 70.4-19.7 8.6-4.4 16.9-9.1 18.5-10.3l2.9-2.4-4.4-3.9c-10.3-9.1-15.8-14.2-23-21.2l-7.5-7.3-11.5 6c-25.8 13.5-47.2 17.6-70.9 13.7-18.2-3-32.9-10.4-45-22.6-9-9-14-17.3-18.2-30-3-9-3.1-10.3-3.2-26 0-12.5.4-18.2 1.7-23.2 5-20.1 14.2-35.6 30.6-51.9 25.1-24.9 58.1-43.7 98.4-56 21.8-6.6 38.4-9.1 64.9-9.6 24.4-.6 34.2.2 56.7 4.3 7.3 1.4 13.5 2.3 13.7 2.1.7-.7 9.2-31.4 10.5-38 .8-4.2.9-7.1.3-7.6-1.3-1.3-14.2-3.9-28.7-5.7-14.7-1.8-62.1-2.7-75.7-1.3"/><path d="M696.6 324.2c-2.6 17.5-4 25.3-6.1 34.5l-2.4 10.8 3.7 3c22.4 18.3 36.1 35.3 43.9 54.5 6.5 16.2 9 38.8 6 54.5-6.6 34.7-30.8 58.4-67 65.9-9.5 2-20.3 2-32.9.1-31.2-4.7-76.6-31.9-112.8-67.7-29.4-29-49.6-57.1-68.2-94.8-5.6-11.3-10.2-20.7-10.4-20.9-.8-.9-17.7 5.8-29.5 11.7-11.1 5.5-13.3 7-13.1 8.7.2 1.1 4.3 10.2 9.3 20.2 9.9 20 26.7 46.2 41.6 64.8 10.3 13 36.5 39.9 51.3 52.9 42.3 37 86.2 61.8 121 68.3 13.1 2.4 38.4 2.4 50 0 26.8-5.7 49.1-17.3 68.4-35.8 29.4-28 43.8-65.7 39.6-103.4-2.4-22.2-5.9-33.7-15.8-52.8-14.4-27.8-38.1-53.2-69.4-74.5-2.6-1.8-5.1-3.2-5.7-3.2-.5 0-1.2 1.5-1.5 3.2M259.5 663.6c-.3 7.5-.3 14 .2 14.5s10.5 1 22.3 1.1l21.5.3.1 9c0 4.9.2 32.1.2 60.2l.2 51.3h31l.1-24.3c.3-57.9.8-94.8 1.4-95.7.4-.6 8.3-1 20.5-1 17.1 0 19.9-.2 20.4-1.6.8-2 .8-12.1-.1-20.7l-.6-6.7H260.3zM731 650.3c0 .2-7.7 22.3-17.1 49.3-18.4 52.6-33.9 98.2-33.9 99.6 0 .4 7.1.8 15.9.8h15.9l5.2-15.3c2.9-8.3 5.8-15.8 6.3-16.5.7-.9 6.8-1.2 26.6-1l25.6.3 5.5 16.2 5.4 16.3h16.8c9.2 0 16.8-.2 16.8-.4 0-.8-41.8-116.2-52.7-145.4l-1.6-4.2h-17.3c-9.6 0-17.4.1-17.4.3m27.5 64.6c4.7 14 8.5 25.8 8.5 26.3 0 .4-8.1.8-18.1.8-14.1 0-18-.3-17.7-1.3 2-7.8 17.4-52.5 18-51.9.4.4 4.6 12.2 9.3 26.1M435.3 690c-7.2 1.1-13.9 5.2-17.2 10.6-1.4 2.4-2.9 4.4-3.3 4.4s-.8-3-1-6.8l-.3-6.7-13.4-.3c-8-.1-13.8.1-14.4.7-.7.7-1 20.2-.9 54.3l.1 53.3 14.6.3 14.5.3v-24.3c0-41 1.8-47.9 14-54.4 2.8-1.5 5.6-1.9 13.8-1.8l10.2.1V709c0-5.9.2-12 .5-13.6s.2-3.4-.3-4.1c-1-1.6-10.4-2.4-16.9-1.3m65.8.1c-8.4 1.1-21.2 7.3-27 13-11.1 11.2-15.2 21.5-15.9 40.3-.7 18.6 2.5 29.8 11.5 40.8 10.4 12.9 25.2 19.8 42.3 19.8 19.2 0 36.1-8.7 45.5-23.5 2.8-4.4 6.5-13.3 6.5-15.7 0-.4-5.4-.8-11.9-.8h-11.9l-3.9 5.7c-5.6 8.2-12.7 11.8-23.2 11.8-6.2 0-8.5-.5-12.6-2.7-2.7-1.4-6-3.7-7.2-5-3-3.2-7.5-13.3-7.1-16l.3-2.3 38.7-.3 38.7-.2.6-3.4c.9-4.6-1.1-20.1-3.5-27-5.8-17-17.5-28.4-34-32.9-7.2-2-18-2.7-25.9-1.6m23.6 24.7c5.3 3.4 10.1 10.2 11 15.5.4 3 .2 3.5-1.8 4-3.7 1-45.2.8-46.8-.2-1.2-.8-1.2-1.6.3-5.4 2.8-7.4 7.2-12.6 12.9-15.3 4.4-2.1 6.3-2.4 12.4-2.1 5.9.3 8 .9 12 3.5m89.2-24.8c-15.1 2.4-28.6 11.8-32.2 22.4-5.4 15.9 1.6 31.4 17.7 39 3.9 1.8 14.1 5.3 22.6 7.6 17.3 4.7 20.3 6.1 22.4 10.3 3.6 7.6-3.8 13-17.9 13.1s-22.2-4.3-24.9-13.5l-1.3-4.4h-28.8l.3 3.9c1.3 15.9 15.3 29.3 35.8 34.2 8.9 2.1 26.6 2.1 35.7 0 17.9-4.2 29.6-15.6 31.3-30.7 1.4-12.4-5.4-23.7-18-29.9-3.4-1.7-13.3-4.8-22.1-7.1-18.5-4.7-24.6-7.4-25.9-11.2-2.5-7.1 4.7-12.7 16.4-12.7 10.8.1 19.1 5.5 20.6 13.4.7 4.3 1.8 4.6 15.8 4.6h10.9l-.6-5.8c-1.3-15.2-12.7-27.1-30.2-31.9-6.6-1.7-20.6-2.4-27.6-1.3M259.4 831.4c-.3.7-.4 4.2-.2 7.7l.3 6.4h560v-15l-279.8-.3c-234.8-.2-279.8 0-280.3 1.2m314.2 34.8c-3.6 3.3-4.2 6.8-1.6 10.1 1.8 2.3 2.9 2.7 7 2.7s5.2-.4 7-2.7c1.5-1.9 1.9-3.5 1.5-5.3-.8-3.5-5.1-7-8.5-7-1.6 0-4 1-5.4 2.2m-200.8 3.4c-.5.4-.8 17.1-.8 37V943l2.5.6c1.4.3 10.7.4 20.8.2 17.4-.4 18.5-.5 24.3-3.2 7.4-3.3 14.5-10.3 17.5-17.1 3.2-7 3.8-21.5 1.4-29.5-3.1-10.3-12.5-20-22.3-23.1-4.2-1.4-42.3-2.5-43.4-1.3m36.7 14.5c8.4 2.3 14.5 11.6 14.5 22.1 0 8.3-1.9 13.8-6.4 18.3-5.1 5-9.8 6.5-20.9 6.5-6.8 0-8.6-.3-9.1-1.6-.8-2.1-.8-29.1 0-38.7l.7-7.7h8.6c4.7 0 10.4.5 12.6 1.1m54 2.3c-5.4 2.5-9.3 6.4-12.8 13-1.9 3.5-2.2 5.7-2.2 15.1s.3 11.6 2.2 15.1c5.8 10.8 13.3 15.4 25.2 15.4 9.8 0 13.8-1.2 18.9-5.6 4.1-3.5 6.2-6.6 7.6-11.2.7-2.1.5-2.2-5.7-2.2s-6.6.2-10.5 4c-3.5 3.5-4.5 4-8.7 4-6.3 0-10.7-2.3-13.3-6.9-4.1-7.3-4.7-7 18.6-7.3l20.7-.3-.1-8c-.2-17.8-10-27.5-27.8-27.5-5.3 0-8.4.6-12.1 2.4m19.5 10.1c1.7.9 3.9 3.3 5 5.5 3.6 7.1 3.7 7-12 7-8.5 0-14-.4-14-1 0-3.1 3.7-9.4 6.4-11.1 3.8-2.3 10.6-2.5 14.6-.4m42.6-11c-8.4 3-13 8.8-13 16.4.1 8.8 4.6 13.7 15.4 16.6 17.3 4.7 19.8 6.2 18.6 10.8-.7 3.1-4.5 4.7-11 4.7-5.7 0-9.9-2.3-11.1-6-.5-1.7-1.5-2-7.1-2-5.8 0-6.4.2-6.4 2 0 2.8 3.3 9 6.2 11.7 4.1 3.9 9.1 5.3 18.5 5.3 16.5-.1 25.3-6.8 25.3-19.4 0-9.4-5.6-13.8-21.5-17.1-10-2.1-13.5-3.9-13.5-6.8 0-4.3 3.6-6.7 9.9-6.7 5.5 0 8.5 1.6 10.4 5.6 1.6 3.3 1.8 3.4 7.8 3.4h6.2l-.6-4.2c-.9-6.8-6.6-12.6-14.6-14.8-5.1-1.4-14.9-1.2-19.5.5m85.6-.4c-5.1 1.5-11.6 8.5-14.1 15.4-1.9 5-2.2 7.6-1.9 15.6.3 8.3.7 10.3 3.3 15.5 6.7 13.2 22 17.2 33.1 8.8 2.4-1.9 4.7-3.4 5-3.4 1 0-.9 9.5-2.7 13.1-2 4.1-6.9 6.9-11.9 6.9-3.4 0-10-2.7-10-4 0-3.1-7.7-5.2-12.4-3.4-5.5 2.1 3.5 14.9 12.1 17.3 5.1 1.4 16.6 1.4 21.5-.1 5.3-1.6 12.1-7.8 15-13.6 2.3-4.6 2.3-5.2 2.3-36.2v-31.5h-13l-.3 3.3-.3 3.3-2.1-2.7c-1.2-1.4-3.6-3.3-5.4-4-3.7-1.6-13.2-1.7-18.2-.3m18.6 12.6c3.7 2.3 6.2 8.9 6.2 16.4 0 11.9-4.3 17.9-13.1 17.9-9.3 0-13.4-6.6-12.7-20.3.4-8.6 2.2-12 7.9-15 3.7-1.9 7.7-1.6 11.7 1m50.5-11.8c-2.3 1.1-4.7 3-5.4 4.3-1.3 2.3-1.4 2.3-1.9-1.2l-.5-3.5h-13v58l6.6.3 6.6.3.5-19.3c.5-21 1.3-24.1 6.3-26.8 1.5-.8 4.5-1.5 6.7-1.5 3.3 0 4.6.7 6.9 3.3 3.1 3.5 3.2 4.2 3.4 34.7v9l6.8.3 6.7.3v-22.7c0-21.2-.1-23.1-2.1-27.2-3.2-6.5-9.5-10.2-17.3-10.2-3.8 0-7.7.8-10.3 1.9M572 914.5v29.6l6.8-.3 6.7-.3v-58l-6.7-.3-6.8-.3z"/></g></svg>