<svg xmlns="http://www.w3.org/2000/svg" width="32" height="32" viewBox="0 0 602 536"><g fill="#17a2b8"><path d="M296.1 28c-29.5 3.8-52.7 13.6-74.1 31.7-40.8 34.5-64.7 98.8-59.2 159.5.4 4.2 1 8 1.4 8.3.3.3 4.8-1.7 9.9-4.6 5.2-2.8 15-7.7 21.9-10.9l12.5-5.7.7-13.9c1-21.8 6.1-41.2 15.6-59.9 11.9-23.1 33-43.1 54.2-51.3 12.4-4.8 17.7-5.7 35-5.7 18.9 0 26.5 1.6 40.1 8.5 18.1 9 33.3 24.7 43.2 44.5 16.6 33.2 19.4 85.4 7.1 134-5.4 21.8-15.6 46.1-27.9 67-11.7 19.8-28.8 42.9-43.9 59.1-3.6 4-6.6 7.6-6.6 8.1 0 2.1 34.2 24.3 37.4 24.3 2.1 0 18.6-19.4 31-36.5 26.8-37 46.2-77.3 56.1-116.5 6.6-26.6 8.6-42.3 8.6-68 0-54.7-17.3-100.7-49.7-132.2-15.8-15.3-30.4-24.4-51.5-31.9-19.4-6.9-44.2-10.1-61.8-7.9"/><path d="M293 200.1c-25.7 2.3-49.7 7.4-74.7 16.1-70.6 24.3-121.8 66.9-142.4 118.3-1.7 4.4-4.5 13.2-6.2 19.5-3 11.1-3.1 12.2-3.1 33 0 20.3.1 22.1 2.7 31.4 5.7 21 15.3 38.1 29.7 52.6 11.6 11.8 20.2 18 35.5 25.5 46.9 23.2 98 20.2 149.4-8.9 14-7.9 13.9-7.7 6.1-14.4-3.6-3.1-11.3-10.3-17.2-16.1l-10.7-10.4-12.1 6.2c-19.1 9.9-32.8 14-50 14.8-18.1.9-34.7-2.9-50-11.4-8.7-4.8-23.5-19.7-27.9-28.1-13.1-25.1-13.2-56.6-.2-83.7 18.3-38.1 66.2-71.8 127.4-89.4 35.4-10.2 78.1-11.4 119.5-3.2 6.6 1.3 9.5 1.5 10.1.7 2.4-2.9 12.7-41.7 11.7-44.2s-26.4-6.5-53.2-8.4c-17-1.1-30.7-1.1-44.4.1"/><path d="M470.6 240.2c-.2.7-.9 5.6-1.6 10.8-.6 5.2-2.5 15.8-4.2 23.5l-3 13.9 2.5 2.1c1.3 1.1 5.9 4.9 10.1 8.4 14.1 11.7 28.7 31.5 35 47.3 4.9 12.6 6.9 23.1 6.9 37.3 0 14.5-1.1 21.4-5.4 32.6-9.3 24.3-29.5 41.7-56.9 49-10.2 2.7-30.3 3.2-41.5 1-32.3-6.4-75.5-33.2-112.1-69.6-28.9-28.8-47.6-54.9-66.5-93.3-6-11.9-10.6-20.2-11.5-20.2-5.3 0-40.7 16.6-41.2 19.4-.7 3.5 17.4 37.8 29.6 56.2 14.2 21.4 23.5 33.3 39.9 50.9 48.8 52.7 109 91.7 154.5 100.2 12.7 2.4 38.2 2.4 49.6 0 48-10.1 87.4-44.2 102.5-88.7 7.1-20.7 7.7-49.3 1.6-73.4-9.4-37.3-39.6-76.5-79.4-103.2-8.4-5.6-8.5-5.7-8.9-4.2"/></g></svg>